<svg width="84" height="59" viewBox="0 0 84 59" fill="none" xmlns="http://www.w3.org/2000/svg">
<rect width="84" height="59" rx="10" fill="#EFEFEF"/>
<path d="M37.3196 19.0175C38.6711 18.8194 40.1027 20.3231 40.515 22.398C40.9273 24.4612 40.1829 26.303 38.8314 26.5128C37.4914 26.7227 36.0483 25.2189 35.6245 23.144C35.2008 21.0808 35.9681 19.239 37.3196 19.0175ZM45.5086 19.0175C46.8715 19.239 47.6274 21.0808 47.2266 23.144C46.7913 25.2189 45.3597 26.7227 44.0082 26.5128C42.6453 26.303 41.9009 24.4612 42.3246 22.398C42.7369 20.3231 44.1686 18.8194 45.5086 19.0175ZM31.1922 24.3796C32.4978 23.8085 34.2731 24.8459 35.2008 26.6527C36.0712 28.4945 35.7734 30.4295 34.4792 31.0007C33.185 31.5719 31.4212 30.5461 30.5164 28.716C29.6116 26.8859 29.9323 24.9392 31.1922 24.3796ZM51.8078 24.3796C53.0677 24.9392 53.3884 26.8859 52.4836 28.716C51.5788 30.5461 49.815 31.5719 48.5208 31.0007C47.2266 30.4295 46.9288 28.4945 47.7992 26.6527C48.7269 24.8459 50.5022 23.8085 51.8078 24.3796ZM49.8951 36.9456C49.941 38.0414 49.1163 39.2537 48.1314 39.7083C46.0813 40.6642 43.6532 38.6825 41.374 38.6825C39.0948 38.6825 36.6439 40.7458 34.6281 39.7083C33.4828 39.1371 32.6925 37.6217 32.8414 36.3628C33.0476 34.6259 35.0977 33.6934 36.3117 32.4228C37.9266 30.7792 39.0719 27.6902 41.374 27.6902C43.6646 27.6902 44.8787 30.7326 46.4248 32.4228C47.6961 33.8449 49.815 35.0456 49.8951 36.9456Z" fill="#888888"/>
</svg>
