<svg width="23" height="21" viewBox="0 0 23 21" fill="none" xmlns="http://www.w3.org/2000/svg">
<path d="M7.31961 0.0175354C8.67108 -0.18063 10.1027 1.32309 10.515 3.398C10.9273 5.46125 10.1829 7.30302 8.83142 7.51284C7.4914 7.72266 6.04831 6.21894 5.62454 4.14403C5.20078 2.08078 5.96814 0.239014 7.31961 0.0175354ZM15.5086 0.0175354C16.8715 0.239014 17.6274 2.08078 17.2266 4.14403C16.7913 6.21894 15.3597 7.72266 14.0082 7.51284C12.6453 7.30302 11.9009 5.46125 12.3246 3.398C12.7369 1.32309 14.1686 -0.18063 15.5086 0.0175354ZM1.19218 5.37965C2.49784 4.80847 4.27307 5.84592 5.20078 7.65272C6.07122 9.49449 5.77343 11.4295 4.47923 12.0007C3.18503 12.5719 1.42124 11.5461 0.516447 9.71597C-0.38835 7.88585 -0.0676628 5.93917 1.19218 5.37965ZM21.8078 5.37965C23.0677 5.93917 23.3884 7.88585 22.4836 9.71597C21.5788 11.5461 19.815 12.5719 18.5208 12.0007C17.2266 11.4295 16.9288 9.49449 17.7992 7.65272C18.7269 5.84592 20.5022 4.80847 21.8078 5.37965ZM19.8951 17.9456C19.941 19.0414 19.1163 20.2537 18.1314 20.7083C16.0813 21.6642 13.6532 19.6825 11.374 19.6825C9.09484 19.6825 6.64387 21.7458 4.62812 20.7083C3.48281 20.1371 2.69254 18.6217 2.84143 17.3628C3.04759 15.6259 5.0977 14.6934 6.31173 13.4228C7.92662 11.7792 9.07194 8.69017 11.374 8.69017C13.6646 8.69017 14.8787 11.7326 16.4248 13.4228C17.6961 14.8449 19.815 16.0456 19.8951 17.9456Z" fill="#888888"/>
</svg>
