<svg width="25" height="23" viewBox="0 0 25 23" fill="none" xmlns="http://www.w3.org/2000/svg">
<path fill-rule="evenodd" clip-rule="evenodd" d="M9.375 1.91667C13.4021 1.91667 16.6667 4.92009 16.6667 8.625C16.6667 12.3299 13.4021 15.3333 9.375 15.3333C8.49976 15.3333 7.66274 15.1919 6.88799 14.9333C6.54649 14.8193 6.16674 14.7938 5.79633 14.8775C4.80144 15.1023 3.7858 15.245 2.76152 15.3032C3.14669 14.3696 3.27977 13.3603 3.14436 12.3633C3.11424 12.1415 3.0354 11.947 2.94173 11.786C2.39423 10.8452 2.08333 9.7699 2.08333 8.625C2.08333 4.92009 5.34792 1.91667 9.375 1.91667ZM18.75 8.625C18.75 3.86154 14.5527 0 9.375 0C4.19733 0 0 3.86154 0 8.625C0 10.0785 0.391644 11.4506 1.08397 12.6542C1.19203 13.5415 0.991794 14.4403 0.507637 15.2198L0.464912 15.2886C-0.0779172 16.1626 0.608003 17.25 1.70212 17.25C3.23114 17.25 4.75138 17.0824 6.23117 16.7528C7.21526 17.075 8.27403 17.25 9.375 17.25C14.5527 17.25 18.75 13.3885 18.75 8.625ZM21.2034 7.91403C20.7636 8.2553 20.7078 8.85991 21.0788 9.26447C22.2261 10.5158 22.9167 12.1304 22.9167 13.8958C22.9167 15.125 22.5822 16.2794 21.9932 17.2891C21.8988 17.451 21.8204 17.6452 21.7901 17.8657C21.6412 18.9493 21.7936 20.0469 22.2283 21.0567C21.0967 20.9982 19.9746 20.8431 18.8762 20.594C18.5055 20.5099 18.1248 20.5352 17.7821 20.6503C16.9482 20.9302 16.0468 21.0833 15.1042 21.0833C13.1852 21.0833 11.4302 20.448 10.0701 19.3925C9.63034 19.0512 8.97315 19.1025 8.60221 19.5071C8.23127 19.9116 8.28703 20.5162 8.72677 20.8575C10.4486 22.1938 12.6754 23 15.1042 23C16.2732 23 17.3971 22.8131 18.4409 22.4692C20.0141 22.8211 21.6307 23 23.2566 23C24.3691 23 25.0665 21.8943 24.5146 21.0057L24.4692 20.9326C23.9459 20.09 23.7306 19.1179 23.8501 18.1589C24.5844 16.8861 25 15.4342 25 13.8958C25 11.6614 24.1237 9.61273 22.6712 8.02863C22.3003 7.62407 21.6431 7.57276 21.2034 7.91403ZM5.20833 9.58333C5.78363 9.58333 6.25 9.15427 6.25 8.625C6.25 8.09573 5.78363 7.66667 5.20833 7.66667C4.63304 7.66667 4.16667 8.09573 4.16667 8.625C4.16667 9.15427 4.63304 9.58333 5.20833 9.58333ZM10.4167 8.625C10.4167 9.15427 9.9503 9.58333 9.375 9.58333C8.7997 9.58333 8.33333 9.15427 8.33333 8.625C8.33333 8.09573 8.7997 7.66667 9.375 7.66667C9.9503 7.66667 10.4167 8.09573 10.4167 8.625ZM13.5417 9.58333C14.117 9.58333 14.5833 9.15427 14.5833 8.625C14.5833 8.09573 14.117 7.66667 13.5417 7.66667C12.9664 7.66667 12.5 8.09573 12.5 8.625C12.5 9.15427 12.9664 9.58333 13.5417 9.58333Z" fill="#888888"/>
</svg>
