<svg width="24" height="24" viewBox="0 0 24 24" fill="none" xmlns="http://www.w3.org/2000/svg">
<path d="M20 9V15C20 17.8285 20 19.2427 19.1213 20.1213C18.2426 21 16.8284 21 14 21H10C7.17157 21 5.75736 21 4.87868 20.1213C4 19.2427 4 17.8285 4 15V9" stroke="#888888" stroke-width="1.5" stroke-linecap="round" stroke-linejoin="round"/>
<path d="M14.75 21V16.25C14.75 14.7312 13.5188 13.5 12 13.5C10.4812 13.5 9.25 14.7312 9.25 16.25V21" stroke="#888888" stroke-width="1.5" stroke-linecap="square"/>
<path d="M2 10.0092L8.30419 5.07982C10.079 3.69209 10.9664 2.99823 12 2.99823C13.0336 2.99823 13.921 3.69209 15.6958 5.07982L22 10.0092" stroke="#888888" stroke-width="1.5" stroke-linecap="round" stroke-linejoin="round"/>
</svg>
