<svg width="24" height="24" viewBox="0 0 24 24" fill="none" xmlns="http://www.w3.org/2000/svg">
<path fill-rule="evenodd" clip-rule="evenodd" d="M12 4C9.79083 4 7.99997 5.79086 7.99997 8C7.99997 10.2091 9.79083 12 12 12C14.2091 12 16 10.2091 16 8C16 5.79086 14.2091 4 12 4ZM15.641 12.7694C17.075 11.673 18 9.94452 18 8C18 4.68629 15.3137 2 12 2C8.68626 2 5.99997 4.68629 5.99997 8C5.99997 9.94452 6.92498 11.673 8.35898 12.7694C7.35351 13.2142 6.42847 13.8436 5.63601 14.636C5.02408 15.248 4.50932 15.939 4.10174 16.6851C3.34963 18.0619 3.65635 19.4657 4.50336 20.4584C5.31877 21.414 6.62499 22 7.99997 22H16C17.3749 22 18.6812 21.414 19.4966 20.4584C20.3436 19.4657 20.6503 18.0619 19.8982 16.6851C19.4906 15.939 18.9759 15.248 18.3639 14.636C17.5715 13.8436 16.6464 13.2142 15.641 12.7694ZM12 14C10.1435 14 8.36298 14.7375 7.05022 16.0503C6.57422 16.5263 6.17391 17.0637 5.85693 17.6439C5.54996 18.2058 5.64899 18.7198 6.02478 19.1602C6.43217 19.6376 7.16581 20 7.99997 20H16C16.8341 20 17.5678 19.6376 17.9752 19.1602C18.351 18.7198 18.45 18.2058 18.143 17.6439C17.826 17.0637 17.4257 16.5263 16.9497 16.0503C15.637 14.7375 13.8565 14 12 14Z" fill="#888888"/>
</svg>
